<?xml version="1.0" encoding="utf-8" standalone="no"?>
<!DOCTYPE svg PUBLIC "-//W3C//DTD SVG 1.1//EN"
  "http://www.w3.org/Graphics/SVG/1.1/DTD/svg11.dtd">
<svg xmlns:xlink="http://www.w3.org/1999/xlink" width="460.8pt" height="345.6pt" viewBox="0 0 460.8 345.6" xmlns="http://www.w3.org/2000/svg" version="1.1">
 <metadata>
  <rdf:RDF xmlns:dc="http://purl.org/dc/elements/1.1/" xmlns:cc="http://creativecommons.org/ns#" xmlns:rdf="http://www.w3.org/1999/02/22-rdf-syntax-ns#">
   <cc:Work>
    <dc:type rdf:resource="http://purl.org/dc/dcmitype/StillImage"/>
    <dc:date>2024-04-09T19:05:44.465986</dc:date>
    <dc:format>image/svg+xml</dc:format>
    <dc:creator>
     <cc:Agent>
      <dc:title>Matplotlib v3.8.1, https://matplotlib.org/</dc:title>
     </cc:Agent>
    </dc:creator>
   </cc:Work>
  </rdf:RDF>
 </metadata>
 <defs>
  <style type="text/css">*{stroke-linejoin: round; stroke-linecap: butt}</style>
 </defs>
 <g id="figure_1">
  <g id="patch_1">
   <path d="M 0 345.6 
L 460.8 345.6 
L 460.8 0 
L 0 0 
z
" style="fill: #ffffff"/>
  </g>
  <g id="axes_1">
   <g id="patch_2">
    <path d="M 57.6 307.584 
L 414.72 307.584 
L 414.72 41.472 
L 57.6 41.472 
z
" style="fill: #ffffff"/>
   </g>
   <g id="matplotlib.axis_1">
    <g id="xtick_1">
     <g id="line2d_1">
      <path d="M 100.887273 307.584 
L 100.887273 41.472 
" clip-path="url(#p69a0c80c89)" style="fill: none; stroke: #b0b0b0; stroke-width: 0.8; stroke-linecap: square"/>
     </g>
     <g id="line2d_2">
      <defs>
       <path id="mc233479dc7" d="M 0 0 
L 0 3.5 
" style="stroke: #000000; stroke-width: 0.8"/>
      </defs>
      <g>
       <use xlink:href="#mc233479dc7" x="100.887273" y="307.584" style="stroke: #000000; stroke-width: 0.8"/>
      </g>
     </g>
     <g id="text_1">
      <!-- 20 -->
      <g transform="translate(94.524773 322.182437) scale(0.1 -0.1)">
       <defs>
        <path id="DejaVuSans-32" d="M 1228 531 
L 3431 531 
L 3431 0 
L 469 0 
L 469 531 
Q 828 903 1448 1529 
Q 2069 2156 2228 2338 
Q 2531 2678 2651 2914 
Q 2772 3150 2772 3378 
Q 2772 3750 2511 3984 
Q 2250 4219 1831 4219 
Q 1534 4219 1204 4116 
Q 875 4013 500 3803 
L 500 4441 
Q 881 4594 1212 4672 
Q 1544 4750 1819 4750 
Q 2544 4750 2975 4387 
Q 3406 4025 3406 3419 
Q 3406 3131 3298 2873 
Q 3191 2616 2906 2266 
Q 2828 2175 2409 1742 
Q 1991 1309 1228 531 
z
" transform="scale(0.015625)"/>
        <path id="DejaVuSans-30" d="M 2034 4250 
Q 1547 4250 1301 3770 
Q 1056 3291 1056 2328 
Q 1056 1369 1301 889 
Q 1547 409 2034 409 
Q 2525 409 2770 889 
Q 3016 1369 3016 2328 
Q 3016 3291 2770 3770 
Q 2525 4250 2034 4250 
z
M 2034 4750 
Q 2819 4750 3233 4129 
Q 3647 3509 3647 2328 
Q 3647 1150 3233 529 
Q 2819 -91 2034 -91 
Q 1250 -91 836 529 
Q 422 1150 422 2328 
Q 422 3509 836 4129 
Q 1250 4750 2034 4750 
z
" transform="scale(0.015625)"/>
       </defs>
       <use xlink:href="#DejaVuSans-32"/>
       <use xlink:href="#DejaVuSans-30" x="63.623047"/>
      </g>
     </g>
    </g>
    <g id="xtick_2">
     <g id="line2d_3">
      <path d="M 168.523636 307.584 
L 168.523636 41.472 
" clip-path="url(#p69a0c80c89)" style="fill: none; stroke: #b0b0b0; stroke-width: 0.8; stroke-linecap: square"/>
     </g>
     <g id="line2d_4">
      <g>
       <use xlink:href="#mc233479dc7" x="168.523636" y="307.584" style="stroke: #000000; stroke-width: 0.8"/>
      </g>
     </g>
     <g id="text_2">
      <!-- 30 -->
      <g transform="translate(162.161136 322.182437) scale(0.1 -0.1)">
       <defs>
        <path id="DejaVuSans-33" d="M 2597 2516 
Q 3050 2419 3304 2112 
Q 3559 1806 3559 1356 
Q 3559 666 3084 287 
Q 2609 -91 1734 -91 
Q 1441 -91 1130 -33 
Q 819 25 488 141 
L 488 750 
Q 750 597 1062 519 
Q 1375 441 1716 441 
Q 2309 441 2620 675 
Q 2931 909 2931 1356 
Q 2931 1769 2642 2001 
Q 2353 2234 1838 2234 
L 1294 2234 
L 1294 2753 
L 1863 2753 
Q 2328 2753 2575 2939 
Q 2822 3125 2822 3475 
Q 2822 3834 2567 4026 
Q 2313 4219 1838 4219 
Q 1578 4219 1281 4162 
Q 984 4106 628 3988 
L 628 4550 
Q 988 4650 1302 4700 
Q 1616 4750 1894 4750 
Q 2613 4750 3031 4423 
Q 3450 4097 3450 3541 
Q 3450 3153 3228 2886 
Q 3006 2619 2597 2516 
z
" transform="scale(0.015625)"/>
       </defs>
       <use xlink:href="#DejaVuSans-33"/>
       <use xlink:href="#DejaVuSans-30" x="63.623047"/>
      </g>
     </g>
    </g>
    <g id="xtick_3">
     <g id="line2d_5">
      <path d="M 236.16 307.584 
L 236.16 41.472 
" clip-path="url(#p69a0c80c89)" style="fill: none; stroke: #b0b0b0; stroke-width: 0.8; stroke-linecap: square"/>
     </g>
     <g id="line2d_6">
      <g>
       <use xlink:href="#mc233479dc7" x="236.16" y="307.584" style="stroke: #000000; stroke-width: 0.8"/>
      </g>
     </g>
     <g id="text_3">
      <!-- 40 -->
      <g transform="translate(229.7975 322.182437) scale(0.1 -0.1)">
       <defs>
        <path id="DejaVuSans-34" d="M 2419 4116 
L 825 1625 
L 2419 1625 
L 2419 4116 
z
M 2253 4666 
L 3047 4666 
L 3047 1625 
L 3713 1625 
L 3713 1100 
L 3047 1100 
L 3047 0 
L 2419 0 
L 2419 1100 
L 313 1100 
L 313 1709 
L 2253 4666 
z
" transform="scale(0.015625)"/>
       </defs>
       <use xlink:href="#DejaVuSans-34"/>
       <use xlink:href="#DejaVuSans-30" x="63.623047"/>
      </g>
     </g>
    </g>
    <g id="xtick_4">
     <g id="line2d_7">
      <path d="M 303.796364 307.584 
L 303.796364 41.472 
" clip-path="url(#p69a0c80c89)" style="fill: none; stroke: #b0b0b0; stroke-width: 0.8; stroke-linecap: square"/>
     </g>
     <g id="line2d_8">
      <g>
       <use xlink:href="#mc233479dc7" x="303.796364" y="307.584" style="stroke: #000000; stroke-width: 0.8"/>
      </g>
     </g>
     <g id="text_4">
      <!-- 50 -->
      <g transform="translate(297.433864 322.182437) scale(0.1 -0.1)">
       <defs>
        <path id="DejaVuSans-35" d="M 691 4666 
L 3169 4666 
L 3169 4134 
L 1269 4134 
L 1269 2991 
Q 1406 3038 1543 3061 
Q 1681 3084 1819 3084 
Q 2600 3084 3056 2656 
Q 3513 2228 3513 1497 
Q 3513 744 3044 326 
Q 2575 -91 1722 -91 
Q 1428 -91 1123 -41 
Q 819 9 494 109 
L 494 744 
Q 775 591 1075 516 
Q 1375 441 1709 441 
Q 2250 441 2565 725 
Q 2881 1009 2881 1497 
Q 2881 1984 2565 2268 
Q 2250 2553 1709 2553 
Q 1456 2553 1204 2497 
Q 953 2441 691 2322 
L 691 4666 
z
" transform="scale(0.015625)"/>
       </defs>
       <use xlink:href="#DejaVuSans-35"/>
       <use xlink:href="#DejaVuSans-30" x="63.623047"/>
      </g>
     </g>
    </g>
    <g id="xtick_5">
     <g id="line2d_9">
      <path d="M 371.432727 307.584 
L 371.432727 41.472 
" clip-path="url(#p69a0c80c89)" style="fill: none; stroke: #b0b0b0; stroke-width: 0.8; stroke-linecap: square"/>
     </g>
     <g id="line2d_10">
      <g>
       <use xlink:href="#mc233479dc7" x="371.432727" y="307.584" style="stroke: #000000; stroke-width: 0.8"/>
      </g>
     </g>
     <g id="text_5">
      <!-- 60 -->
      <g transform="translate(365.070227 322.182437) scale(0.1 -0.1)">
       <defs>
        <path id="DejaVuSans-36" d="M 2113 2584 
Q 1688 2584 1439 2293 
Q 1191 2003 1191 1497 
Q 1191 994 1439 701 
Q 1688 409 2113 409 
Q 2538 409 2786 701 
Q 3034 994 3034 1497 
Q 3034 2003 2786 2293 
Q 2538 2584 2113 2584 
z
M 3366 4563 
L 3366 3988 
Q 3128 4100 2886 4159 
Q 2644 4219 2406 4219 
Q 1781 4219 1451 3797 
Q 1122 3375 1075 2522 
Q 1259 2794 1537 2939 
Q 1816 3084 2150 3084 
Q 2853 3084 3261 2657 
Q 3669 2231 3669 1497 
Q 3669 778 3244 343 
Q 2819 -91 2113 -91 
Q 1303 -91 875 529 
Q 447 1150 447 2328 
Q 447 3434 972 4092 
Q 1497 4750 2381 4750 
Q 2619 4750 2861 4703 
Q 3103 4656 3366 4563 
z
" transform="scale(0.015625)"/>
       </defs>
       <use xlink:href="#DejaVuSans-36"/>
       <use xlink:href="#DejaVuSans-30" x="63.623047"/>
      </g>
     </g>
    </g>
    <g id="text_6">
     <!-- Number of Groups -->
     <g transform="translate(190.252187 335.860562) scale(0.1 -0.1)">
      <defs>
       <path id="DejaVuSans-4e" d="M 628 4666 
L 1478 4666 
L 3547 763 
L 3547 4666 
L 4159 4666 
L 4159 0 
L 3309 0 
L 1241 3903 
L 1241 0 
L 628 0 
L 628 4666 
z
" transform="scale(0.015625)"/>
       <path id="DejaVuSans-75" d="M 544 1381 
L 544 3500 
L 1119 3500 
L 1119 1403 
Q 1119 906 1312 657 
Q 1506 409 1894 409 
Q 2359 409 2629 706 
Q 2900 1003 2900 1516 
L 2900 3500 
L 3475 3500 
L 3475 0 
L 2900 0 
L 2900 538 
Q 2691 219 2414 64 
Q 2138 -91 1772 -91 
Q 1169 -91 856 284 
Q 544 659 544 1381 
z
M 1991 3584 
L 1991 3584 
z
" transform="scale(0.015625)"/>
       <path id="DejaVuSans-6d" d="M 3328 2828 
Q 3544 3216 3844 3400 
Q 4144 3584 4550 3584 
Q 5097 3584 5394 3201 
Q 5691 2819 5691 2113 
L 5691 0 
L 5113 0 
L 5113 2094 
Q 5113 2597 4934 2840 
Q 4756 3084 4391 3084 
Q 3944 3084 3684 2787 
Q 3425 2491 3425 1978 
L 3425 0 
L 2847 0 
L 2847 2094 
Q 2847 2600 2669 2842 
Q 2491 3084 2119 3084 
Q 1678 3084 1418 2786 
Q 1159 2488 1159 1978 
L 1159 0 
L 581 0 
L 581 3500 
L 1159 3500 
L 1159 2956 
Q 1356 3278 1631 3431 
Q 1906 3584 2284 3584 
Q 2666 3584 2933 3390 
Q 3200 3197 3328 2828 
z
" transform="scale(0.015625)"/>
       <path id="DejaVuSans-62" d="M 3116 1747 
Q 3116 2381 2855 2742 
Q 2594 3103 2138 3103 
Q 1681 3103 1420 2742 
Q 1159 2381 1159 1747 
Q 1159 1113 1420 752 
Q 1681 391 2138 391 
Q 2594 391 2855 752 
Q 3116 1113 3116 1747 
z
M 1159 2969 
Q 1341 3281 1617 3432 
Q 1894 3584 2278 3584 
Q 2916 3584 3314 3078 
Q 3713 2572 3713 1747 
Q 3713 922 3314 415 
Q 2916 -91 2278 -91 
Q 1894 -91 1617 61 
Q 1341 213 1159 525 
L 1159 0 
L 581 0 
L 581 4863 
L 1159 4863 
L 1159 2969 
z
" transform="scale(0.015625)"/>
       <path id="DejaVuSans-65" d="M 3597 1894 
L 3597 1613 
L 953 1613 
Q 991 1019 1311 708 
Q 1631 397 2203 397 
Q 2534 397 2845 478 
Q 3156 559 3463 722 
L 3463 178 
Q 3153 47 2828 -22 
Q 2503 -91 2169 -91 
Q 1331 -91 842 396 
Q 353 884 353 1716 
Q 353 2575 817 3079 
Q 1281 3584 2069 3584 
Q 2775 3584 3186 3129 
Q 3597 2675 3597 1894 
z
M 3022 2063 
Q 3016 2534 2758 2815 
Q 2500 3097 2075 3097 
Q 1594 3097 1305 2825 
Q 1016 2553 972 2059 
L 3022 2063 
z
" transform="scale(0.015625)"/>
       <path id="DejaVuSans-72" d="M 2631 2963 
Q 2534 3019 2420 3045 
Q 2306 3072 2169 3072 
Q 1681 3072 1420 2755 
Q 1159 2438 1159 1844 
L 1159 0 
L 581 0 
L 581 3500 
L 1159 3500 
L 1159 2956 
Q 1341 3275 1631 3429 
Q 1922 3584 2338 3584 
Q 2397 3584 2469 3576 
Q 2541 3569 2628 3553 
L 2631 2963 
z
" transform="scale(0.015625)"/>
       <path id="DejaVuSans-20" transform="scale(0.015625)"/>
       <path id="DejaVuSans-6f" d="M 1959 3097 
Q 1497 3097 1228 2736 
Q 959 2375 959 1747 
Q 959 1119 1226 758 
Q 1494 397 1959 397 
Q 2419 397 2687 759 
Q 2956 1122 2956 1747 
Q 2956 2369 2687 2733 
Q 2419 3097 1959 3097 
z
M 1959 3584 
Q 2709 3584 3137 3096 
Q 3566 2609 3566 1747 
Q 3566 888 3137 398 
Q 2709 -91 1959 -91 
Q 1206 -91 779 398 
Q 353 888 353 1747 
Q 353 2609 779 3096 
Q 1206 3584 1959 3584 
z
" transform="scale(0.015625)"/>
       <path id="DejaVuSans-66" d="M 2375 4863 
L 2375 4384 
L 1825 4384 
Q 1516 4384 1395 4259 
Q 1275 4134 1275 3809 
L 1275 3500 
L 2222 3500 
L 2222 3053 
L 1275 3053 
L 1275 0 
L 697 0 
L 697 3053 
L 147 3053 
L 147 3500 
L 697 3500 
L 697 3744 
Q 697 4328 969 4595 
Q 1241 4863 1831 4863 
L 2375 4863 
z
" transform="scale(0.015625)"/>
       <path id="DejaVuSans-47" d="M 3809 666 
L 3809 1919 
L 2778 1919 
L 2778 2438 
L 4434 2438 
L 4434 434 
Q 4069 175 3628 42 
Q 3188 -91 2688 -91 
Q 1594 -91 976 548 
Q 359 1188 359 2328 
Q 359 3472 976 4111 
Q 1594 4750 2688 4750 
Q 3144 4750 3555 4637 
Q 3966 4525 4313 4306 
L 4313 3634 
Q 3963 3931 3569 4081 
Q 3175 4231 2741 4231 
Q 1884 4231 1454 3753 
Q 1025 3275 1025 2328 
Q 1025 1384 1454 906 
Q 1884 428 2741 428 
Q 3075 428 3337 486 
Q 3600 544 3809 666 
z
" transform="scale(0.015625)"/>
       <path id="DejaVuSans-70" d="M 1159 525 
L 1159 -1331 
L 581 -1331 
L 581 3500 
L 1159 3500 
L 1159 2969 
Q 1341 3281 1617 3432 
Q 1894 3584 2278 3584 
Q 2916 3584 3314 3078 
Q 3713 2572 3713 1747 
Q 3713 922 3314 415 
Q 2916 -91 2278 -91 
Q 1894 -91 1617 61 
Q 1341 213 1159 525 
z
M 3116 1747 
Q 3116 2381 2855 2742 
Q 2594 3103 2138 3103 
Q 1681 3103 1420 2742 
Q 1159 2381 1159 1747 
Q 1159 1113 1420 752 
Q 1681 391 2138 391 
Q 2594 391 2855 752 
Q 3116 1113 3116 1747 
z
" transform="scale(0.015625)"/>
       <path id="DejaVuSans-73" d="M 2834 3397 
L 2834 2853 
Q 2591 2978 2328 3040 
Q 2066 3103 1784 3103 
Q 1356 3103 1142 2972 
Q 928 2841 928 2578 
Q 928 2378 1081 2264 
Q 1234 2150 1697 2047 
L 1894 2003 
Q 2506 1872 2764 1633 
Q 3022 1394 3022 966 
Q 3022 478 2636 193 
Q 2250 -91 1575 -91 
Q 1294 -91 989 -36 
Q 684 19 347 128 
L 347 722 
Q 666 556 975 473 
Q 1284 391 1588 391 
Q 1994 391 2212 530 
Q 2431 669 2431 922 
Q 2431 1156 2273 1281 
Q 2116 1406 1581 1522 
L 1381 1569 
Q 847 1681 609 1914 
Q 372 2147 372 2553 
Q 372 3047 722 3315 
Q 1072 3584 1716 3584 
Q 2034 3584 2315 3537 
Q 2597 3491 2834 3397 
z
" transform="scale(0.015625)"/>
      </defs>
      <use xlink:href="#DejaVuSans-4e"/>
      <use xlink:href="#DejaVuSans-75" x="74.804688"/>
      <use xlink:href="#DejaVuSans-6d" x="138.183594"/>
      <use xlink:href="#DejaVuSans-62" x="235.595703"/>
      <use xlink:href="#DejaVuSans-65" x="299.072266"/>
      <use xlink:href="#DejaVuSans-72" x="360.595703"/>
      <use xlink:href="#DejaVuSans-20" x="401.708984"/>
      <use xlink:href="#DejaVuSans-6f" x="433.496094"/>
      <use xlink:href="#DejaVuSans-66" x="494.677734"/>
      <use xlink:href="#DejaVuSans-20" x="529.882812"/>
      <use xlink:href="#DejaVuSans-47" x="561.669922"/>
      <use xlink:href="#DejaVuSans-72" x="639.160156"/>
      <use xlink:href="#DejaVuSans-6f" x="678.023438"/>
      <use xlink:href="#DejaVuSans-75" x="739.205078"/>
      <use xlink:href="#DejaVuSans-70" x="802.583984"/>
      <use xlink:href="#DejaVuSans-73" x="866.060547"/>
     </g>
    </g>
   </g>
   <g id="matplotlib.axis_2">
    <g id="ytick_1">
     <g id="line2d_11">
      <path d="M 57.6 280.046298 
L 414.72 280.046298 
" clip-path="url(#p69a0c80c89)" style="fill: none; stroke: #b0b0b0; stroke-width: 0.8; stroke-linecap: square"/>
     </g>
     <g id="line2d_12">
      <defs>
       <path id="m0323b3e645" d="M 0 0 
L -3.5 0 
" style="stroke: #000000; stroke-width: 0.8"/>
      </defs>
      <g>
       <use xlink:href="#m0323b3e645" x="57.6" y="280.046298" style="stroke: #000000; stroke-width: 0.8"/>
      </g>
     </g>
     <g id="text_7">
      <!-- 82 -->
      <g transform="translate(37.875 283.845517) scale(0.1 -0.1)">
       <defs>
        <path id="DejaVuSans-38" d="M 2034 2216 
Q 1584 2216 1326 1975 
Q 1069 1734 1069 1313 
Q 1069 891 1326 650 
Q 1584 409 2034 409 
Q 2484 409 2743 651 
Q 3003 894 3003 1313 
Q 3003 1734 2745 1975 
Q 2488 2216 2034 2216 
z
M 1403 2484 
Q 997 2584 770 2862 
Q 544 3141 544 3541 
Q 544 4100 942 4425 
Q 1341 4750 2034 4750 
Q 2731 4750 3128 4425 
Q 3525 4100 3525 3541 
Q 3525 3141 3298 2862 
Q 3072 2584 2669 2484 
Q 3125 2378 3379 2068 
Q 3634 1759 3634 1313 
Q 3634 634 3220 271 
Q 2806 -91 2034 -91 
Q 1263 -91 848 271 
Q 434 634 434 1313 
Q 434 1759 690 2068 
Q 947 2378 1403 2484 
z
M 1172 3481 
Q 1172 3119 1398 2916 
Q 1625 2713 2034 2713 
Q 2441 2713 2670 2916 
Q 2900 3119 2900 3481 
Q 2900 3844 2670 4047 
Q 2441 4250 2034 4250 
Q 1625 4250 1398 4047 
Q 1172 3844 1172 3481 
z
" transform="scale(0.015625)"/>
       </defs>
       <use xlink:href="#DejaVuSans-38"/>
       <use xlink:href="#DejaVuSans-32" x="63.623047"/>
      </g>
     </g>
    </g>
    <g id="ytick_2">
     <g id="line2d_13">
      <path d="M 57.6 244.411601 
L 414.72 244.411601 
" clip-path="url(#p69a0c80c89)" style="fill: none; stroke: #b0b0b0; stroke-width: 0.8; stroke-linecap: square"/>
     </g>
     <g id="line2d_14">
      <g>
       <use xlink:href="#m0323b3e645" x="57.6" y="244.411601" style="stroke: #000000; stroke-width: 0.8"/>
      </g>
     </g>
     <g id="text_8">
      <!-- 84 -->
      <g transform="translate(37.875 248.210819) scale(0.1 -0.1)">
       <use xlink:href="#DejaVuSans-38"/>
       <use xlink:href="#DejaVuSans-34" x="63.623047"/>
      </g>
     </g>
    </g>
    <g id="ytick_3">
     <g id="line2d_15">
      <path d="M 57.6 208.776903 
L 414.72 208.776903 
" clip-path="url(#p69a0c80c89)" style="fill: none; stroke: #b0b0b0; stroke-width: 0.8; stroke-linecap: square"/>
     </g>
     <g id="line2d_16">
      <g>
       <use xlink:href="#m0323b3e645" x="57.6" y="208.776903" style="stroke: #000000; stroke-width: 0.8"/>
      </g>
     </g>
     <g id="text_9">
      <!-- 86 -->
      <g transform="translate(37.875 212.576122) scale(0.1 -0.1)">
       <use xlink:href="#DejaVuSans-38"/>
       <use xlink:href="#DejaVuSans-36" x="63.623047"/>
      </g>
     </g>
    </g>
    <g id="ytick_4">
     <g id="line2d_17">
      <path d="M 57.6 173.142206 
L 414.72 173.142206 
" clip-path="url(#p69a0c80c89)" style="fill: none; stroke: #b0b0b0; stroke-width: 0.8; stroke-linecap: square"/>
     </g>
     <g id="line2d_18">
      <g>
       <use xlink:href="#m0323b3e645" x="57.6" y="173.142206" style="stroke: #000000; stroke-width: 0.8"/>
      </g>
     </g>
     <g id="text_10">
      <!-- 88 -->
      <g transform="translate(37.875 176.941425) scale(0.1 -0.1)">
       <use xlink:href="#DejaVuSans-38"/>
       <use xlink:href="#DejaVuSans-38" x="63.623047"/>
      </g>
     </g>
    </g>
    <g id="ytick_5">
     <g id="line2d_19">
      <path d="M 57.6 137.507509 
L 414.72 137.507509 
" clip-path="url(#p69a0c80c89)" style="fill: none; stroke: #b0b0b0; stroke-width: 0.8; stroke-linecap: square"/>
     </g>
     <g id="line2d_20">
      <g>
       <use xlink:href="#m0323b3e645" x="57.6" y="137.507509" style="stroke: #000000; stroke-width: 0.8"/>
      </g>
     </g>
     <g id="text_11">
      <!-- 90 -->
      <g transform="translate(37.875 141.306728) scale(0.1 -0.1)">
       <defs>
        <path id="DejaVuSans-39" d="M 703 97 
L 703 672 
Q 941 559 1184 500 
Q 1428 441 1663 441 
Q 2288 441 2617 861 
Q 2947 1281 2994 2138 
Q 2813 1869 2534 1725 
Q 2256 1581 1919 1581 
Q 1219 1581 811 2004 
Q 403 2428 403 3163 
Q 403 3881 828 4315 
Q 1253 4750 1959 4750 
Q 2769 4750 3195 4129 
Q 3622 3509 3622 2328 
Q 3622 1225 3098 567 
Q 2575 -91 1691 -91 
Q 1453 -91 1209 -44 
Q 966 3 703 97 
z
M 1959 2075 
Q 2384 2075 2632 2365 
Q 2881 2656 2881 3163 
Q 2881 3666 2632 3958 
Q 2384 4250 1959 4250 
Q 1534 4250 1286 3958 
Q 1038 3666 1038 3163 
Q 1038 2656 1286 2365 
Q 1534 2075 1959 2075 
z
" transform="scale(0.015625)"/>
       </defs>
       <use xlink:href="#DejaVuSans-39"/>
       <use xlink:href="#DejaVuSans-30" x="63.623047"/>
      </g>
     </g>
    </g>
    <g id="ytick_6">
     <g id="line2d_21">
      <path d="M 57.6 101.872812 
L 414.72 101.872812 
" clip-path="url(#p69a0c80c89)" style="fill: none; stroke: #b0b0b0; stroke-width: 0.8; stroke-linecap: square"/>
     </g>
     <g id="line2d_22">
      <g>
       <use xlink:href="#m0323b3e645" x="57.6" y="101.872812" style="stroke: #000000; stroke-width: 0.8"/>
      </g>
     </g>
     <g id="text_12">
      <!-- 92 -->
      <g transform="translate(37.875 105.672031) scale(0.1 -0.1)">
       <use xlink:href="#DejaVuSans-39"/>
       <use xlink:href="#DejaVuSans-32" x="63.623047"/>
      </g>
     </g>
    </g>
    <g id="ytick_7">
     <g id="line2d_23">
      <path d="M 57.6 66.238115 
L 414.72 66.238115 
" clip-path="url(#p69a0c80c89)" style="fill: none; stroke: #b0b0b0; stroke-width: 0.8; stroke-linecap: square"/>
     </g>
     <g id="line2d_24">
      <g>
       <use xlink:href="#m0323b3e645" x="57.6" y="66.238115" style="stroke: #000000; stroke-width: 0.8"/>
      </g>
     </g>
     <g id="text_13">
      <!-- 94 -->
      <g transform="translate(37.875 70.037333) scale(0.1 -0.1)">
       <use xlink:href="#DejaVuSans-39"/>
       <use xlink:href="#DejaVuSans-34" x="63.623047"/>
      </g>
     </g>
    </g>
    <g id="text_14">
     <!-- Prediction Accuracy on the Test Set -->
     <g transform="translate(31.795312 262.628) rotate(-90) scale(0.1 -0.1)">
      <defs>
       <path id="DejaVuSans-50" d="M 1259 4147 
L 1259 2394 
L 2053 2394 
Q 2494 2394 2734 2622 
Q 2975 2850 2975 3272 
Q 2975 3691 2734 3919 
Q 2494 4147 2053 4147 
L 1259 4147 
z
M 628 4666 
L 2053 4666 
Q 2838 4666 3239 4311 
Q 3641 3956 3641 3272 
Q 3641 2581 3239 2228 
Q 2838 1875 2053 1875 
L 1259 1875 
L 1259 0 
L 628 0 
L 628 4666 
z
" transform="scale(0.015625)"/>
       <path id="DejaVuSans-64" d="M 2906 2969 
L 2906 4863 
L 3481 4863 
L 3481 0 
L 2906 0 
L 2906 525 
Q 2725 213 2448 61 
Q 2172 -91 1784 -91 
Q 1150 -91 751 415 
Q 353 922 353 1747 
Q 353 2572 751 3078 
Q 1150 3584 1784 3584 
Q 2172 3584 2448 3432 
Q 2725 3281 2906 2969 
z
M 947 1747 
Q 947 1113 1208 752 
Q 1469 391 1925 391 
Q 2381 391 2643 752 
Q 2906 1113 2906 1747 
Q 2906 2381 2643 2742 
Q 2381 3103 1925 3103 
Q 1469 3103 1208 2742 
Q 947 2381 947 1747 
z
" transform="scale(0.015625)"/>
       <path id="DejaVuSans-69" d="M 603 3500 
L 1178 3500 
L 1178 0 
L 603 0 
L 603 3500 
z
M 603 4863 
L 1178 4863 
L 1178 4134 
L 603 4134 
L 603 4863 
z
" transform="scale(0.015625)"/>
       <path id="DejaVuSans-63" d="M 3122 3366 
L 3122 2828 
Q 2878 2963 2633 3030 
Q 2388 3097 2138 3097 
Q 1578 3097 1268 2742 
Q 959 2388 959 1747 
Q 959 1106 1268 751 
Q 1578 397 2138 397 
Q 2388 397 2633 464 
Q 2878 531 3122 666 
L 3122 134 
Q 2881 22 2623 -34 
Q 2366 -91 2075 -91 
Q 1284 -91 818 406 
Q 353 903 353 1747 
Q 353 2603 823 3093 
Q 1294 3584 2113 3584 
Q 2378 3584 2631 3529 
Q 2884 3475 3122 3366 
z
" transform="scale(0.015625)"/>
       <path id="DejaVuSans-74" d="M 1172 4494 
L 1172 3500 
L 2356 3500 
L 2356 3053 
L 1172 3053 
L 1172 1153 
Q 1172 725 1289 603 
Q 1406 481 1766 481 
L 2356 481 
L 2356 0 
L 1766 0 
Q 1100 0 847 248 
Q 594 497 594 1153 
L 594 3053 
L 172 3053 
L 172 3500 
L 594 3500 
L 594 4494 
L 1172 4494 
z
" transform="scale(0.015625)"/>
       <path id="DejaVuSans-6e" d="M 3513 2113 
L 3513 0 
L 2938 0 
L 2938 2094 
Q 2938 2591 2744 2837 
Q 2550 3084 2163 3084 
Q 1697 3084 1428 2787 
Q 1159 2491 1159 1978 
L 1159 0 
L 581 0 
L 581 3500 
L 1159 3500 
L 1159 2956 
Q 1366 3272 1645 3428 
Q 1925 3584 2291 3584 
Q 2894 3584 3203 3211 
Q 3513 2838 3513 2113 
z
" transform="scale(0.015625)"/>
       <path id="DejaVuSans-41" d="M 2188 4044 
L 1331 1722 
L 3047 1722 
L 2188 4044 
z
M 1831 4666 
L 2547 4666 
L 4325 0 
L 3669 0 
L 3244 1197 
L 1141 1197 
L 716 0 
L 50 0 
L 1831 4666 
z
" transform="scale(0.015625)"/>
       <path id="DejaVuSans-61" d="M 2194 1759 
Q 1497 1759 1228 1600 
Q 959 1441 959 1056 
Q 959 750 1161 570 
Q 1363 391 1709 391 
Q 2188 391 2477 730 
Q 2766 1069 2766 1631 
L 2766 1759 
L 2194 1759 
z
M 3341 1997 
L 3341 0 
L 2766 0 
L 2766 531 
Q 2569 213 2275 61 
Q 1981 -91 1556 -91 
Q 1019 -91 701 211 
Q 384 513 384 1019 
Q 384 1609 779 1909 
Q 1175 2209 1959 2209 
L 2766 2209 
L 2766 2266 
Q 2766 2663 2505 2880 
Q 2244 3097 1772 3097 
Q 1472 3097 1187 3025 
Q 903 2953 641 2809 
L 641 3341 
Q 956 3463 1253 3523 
Q 1550 3584 1831 3584 
Q 2591 3584 2966 3190 
Q 3341 2797 3341 1997 
z
" transform="scale(0.015625)"/>
       <path id="DejaVuSans-79" d="M 2059 -325 
Q 1816 -950 1584 -1140 
Q 1353 -1331 966 -1331 
L 506 -1331 
L 506 -850 
L 844 -850 
Q 1081 -850 1212 -737 
Q 1344 -625 1503 -206 
L 1606 56 
L 191 3500 
L 800 3500 
L 1894 763 
L 2988 3500 
L 3597 3500 
L 2059 -325 
z
" transform="scale(0.015625)"/>
       <path id="DejaVuSans-68" d="M 3513 2113 
L 3513 0 
L 2938 0 
L 2938 2094 
Q 2938 2591 2744 2837 
Q 2550 3084 2163 3084 
Q 1697 3084 1428 2787 
Q 1159 2491 1159 1978 
L 1159 0 
L 581 0 
L 581 4863 
L 1159 4863 
L 1159 2956 
Q 1366 3272 1645 3428 
Q 1925 3584 2291 3584 
Q 2894 3584 3203 3211 
Q 3513 2838 3513 2113 
z
" transform="scale(0.015625)"/>
       <path id="DejaVuSans-54" d="M -19 4666 
L 3928 4666 
L 3928 4134 
L 2272 4134 
L 2272 0 
L 1638 0 
L 1638 4134 
L -19 4134 
L -19 4666 
z
" transform="scale(0.015625)"/>
       <path id="DejaVuSans-53" d="M 3425 4513 
L 3425 3897 
Q 3066 4069 2747 4153 
Q 2428 4238 2131 4238 
Q 1616 4238 1336 4038 
Q 1056 3838 1056 3469 
Q 1056 3159 1242 3001 
Q 1428 2844 1947 2747 
L 2328 2669 
Q 3034 2534 3370 2195 
Q 3706 1856 3706 1288 
Q 3706 609 3251 259 
Q 2797 -91 1919 -91 
Q 1588 -91 1214 -16 
Q 841 59 441 206 
L 441 856 
Q 825 641 1194 531 
Q 1563 422 1919 422 
Q 2459 422 2753 634 
Q 3047 847 3047 1241 
Q 3047 1584 2836 1778 
Q 2625 1972 2144 2069 
L 1759 2144 
Q 1053 2284 737 2584 
Q 422 2884 422 3419 
Q 422 4038 858 4394 
Q 1294 4750 2059 4750 
Q 2388 4750 2728 4690 
Q 3069 4631 3425 4513 
z
" transform="scale(0.015625)"/>
      </defs>
      <use xlink:href="#DejaVuSans-50"/>
      <use xlink:href="#DejaVuSans-72" x="58.552734"/>
      <use xlink:href="#DejaVuSans-65" x="97.416016"/>
      <use xlink:href="#DejaVuSans-64" x="158.939453"/>
      <use xlink:href="#DejaVuSans-69" x="222.416016"/>
      <use xlink:href="#DejaVuSans-63" x="250.199219"/>
      <use xlink:href="#DejaVuSans-74" x="305.179688"/>
      <use xlink:href="#DejaVuSans-69" x="344.388672"/>
      <use xlink:href="#DejaVuSans-6f" x="372.171875"/>
      <use xlink:href="#DejaVuSans-6e" x="433.353516"/>
      <use xlink:href="#DejaVuSans-20" x="496.732422"/>
      <use xlink:href="#DejaVuSans-41" x="528.519531"/>
      <use xlink:href="#DejaVuSans-63" x="595.177734"/>
      <use xlink:href="#DejaVuSans-63" x="650.158203"/>
      <use xlink:href="#DejaVuSans-75" x="705.138672"/>
      <use xlink:href="#DejaVuSans-72" x="768.517578"/>
      <use xlink:href="#DejaVuSans-61" x="809.630859"/>
      <use xlink:href="#DejaVuSans-63" x="870.910156"/>
      <use xlink:href="#DejaVuSans-79" x="925.890625"/>
      <use xlink:href="#DejaVuSans-20" x="985.070312"/>
      <use xlink:href="#DejaVuSans-6f" x="1016.857422"/>
      <use xlink:href="#DejaVuSans-6e" x="1078.039062"/>
      <use xlink:href="#DejaVuSans-20" x="1141.417969"/>
      <use xlink:href="#DejaVuSans-74" x="1173.205078"/>
      <use xlink:href="#DejaVuSans-68" x="1212.414062"/>
      <use xlink:href="#DejaVuSans-65" x="1275.792969"/>
      <use xlink:href="#DejaVuSans-20" x="1337.316406"/>
      <use xlink:href="#DejaVuSans-54" x="1369.103516"/>
      <use xlink:href="#DejaVuSans-65" x="1413.1875"/>
      <use xlink:href="#DejaVuSans-73" x="1474.710938"/>
      <use xlink:href="#DejaVuSans-74" x="1526.810547"/>
      <use xlink:href="#DejaVuSans-20" x="1566.019531"/>
      <use xlink:href="#DejaVuSans-53" x="1597.806641"/>
      <use xlink:href="#DejaVuSans-65" x="1661.283203"/>
      <use xlink:href="#DejaVuSans-74" x="1722.806641"/>
     </g>
    </g>
   </g>
   <g id="line2d_25">
    <path d="M 73.832727 110.642907 
L 100.887273 102.328144 
L 127.941818 95.181408 
L 154.996364 91.994082 
L 182.050909 97.339286 
L 209.105455 89.895594 
L 236.16 92.647385 
L 263.214545 88.272236 
L 290.269091 87.876295 
L 317.323636 88.866147 
L 344.378182 83.382363 
L 371.432727 83.778304 
L 398.487273 84.867142 
" clip-path="url(#p69a0c80c89)" style="fill: none; stroke: #add8e6; stroke-width: 1.5; stroke-linecap: square"/>
   </g>
   <g id="LineCollection_1">
    <path d="M 73.832727 146.218213 
L 73.832727 90.786462 
" clip-path="url(#p69a0c80c89)" style="fill: none; stroke: #add8e6; stroke-width: 1.5"/>
    <path d="M 100.887273 130.38057 
L 100.887273 85.243286 
" clip-path="url(#p69a0c80c89)" style="fill: none; stroke: #add8e6; stroke-width: 1.5"/>
    <path d="M 127.941818 116.522632 
L 127.941818 78.512288 
" clip-path="url(#p69a0c80c89)" style="fill: none; stroke: #add8e6; stroke-width: 1.5"/>
    <path d="M 154.996364 118.898278 
L 154.996364 74.552877 
" clip-path="url(#p69a0c80c89)" style="fill: none; stroke: #add8e6; stroke-width: 1.5"/>
    <path d="M 182.050909 150.969506 
L 182.050909 84.847345 
" clip-path="url(#p69a0c80c89)" style="fill: none; stroke: #add8e6; stroke-width: 1.5"/>
    <path d="M 209.105455 112.563221 
L 209.105455 72.573172 
" clip-path="url(#p69a0c80c89)" style="fill: none; stroke: #add8e6; stroke-width: 1.5"/>
    <path d="M 236.16 109.395692 
L 236.16 83.263581 
" clip-path="url(#p69a0c80c89)" style="fill: none; stroke: #add8e6; stroke-width: 1.5"/>
    <path d="M 263.214545 102.268753 
L 263.214545 78.116347 
" clip-path="url(#p69a0c80c89)" style="fill: none; stroke: #add8e6; stroke-width: 1.5"/>
    <path d="M 290.269091 105.436282 
L 290.269091 75.7407 
" clip-path="url(#p69a0c80c89)" style="fill: none; stroke: #add8e6; stroke-width: 1.5"/>
    <path d="M 317.323636 97.51746 
L 317.323636 80.096052 
" clip-path="url(#p69a0c80c89)" style="fill: none; stroke: #add8e6; stroke-width: 1.5"/>
    <path d="M 344.378182 95.537755 
L 344.378182 70.989408 
" clip-path="url(#p69a0c80c89)" style="fill: none; stroke: #add8e6; stroke-width: 1.5"/>
    <path d="M 371.432727 101.08093 
L 371.432727 74.156936 
" clip-path="url(#p69a0c80c89)" style="fill: none; stroke: #add8e6; stroke-width: 1.5"/>
    <path d="M 398.487273 94.349931 
L 398.487273 74.948818 
" clip-path="url(#p69a0c80c89)" style="fill: none; stroke: #add8e6; stroke-width: 1.5"/>
   </g>
   <g id="line2d_26">
    <defs>
     <path id="mf506bd5639" d="M 8 0 
L -8 -0 
" style="stroke: #add8e6"/>
    </defs>
    <g clip-path="url(#p69a0c80c89)">
     <use xlink:href="#mf506bd5639" x="73.832727" y="146.218213" style="fill: #add8e6; stroke: #add8e6"/>
     <use xlink:href="#mf506bd5639" x="100.887273" y="130.38057" style="fill: #add8e6; stroke: #add8e6"/>
     <use xlink:href="#mf506bd5639" x="127.941818" y="116.522632" style="fill: #add8e6; stroke: #add8e6"/>
     <use xlink:href="#mf506bd5639" x="154.996364" y="118.898278" style="fill: #add8e6; stroke: #add8e6"/>
     <use xlink:href="#mf506bd5639" x="182.050909" y="150.969506" style="fill: #add8e6; stroke: #add8e6"/>
     <use xlink:href="#mf506bd5639" x="209.105455" y="112.563221" style="fill: #add8e6; stroke: #add8e6"/>
     <use xlink:href="#mf506bd5639" x="236.16" y="109.395692" style="fill: #add8e6; stroke: #add8e6"/>
     <use xlink:href="#mf506bd5639" x="263.214545" y="102.268753" style="fill: #add8e6; stroke: #add8e6"/>
     <use xlink:href="#mf506bd5639" x="290.269091" y="105.436282" style="fill: #add8e6; stroke: #add8e6"/>
     <use xlink:href="#mf506bd5639" x="317.323636" y="97.51746" style="fill: #add8e6; stroke: #add8e6"/>
     <use xlink:href="#mf506bd5639" x="344.378182" y="95.537755" style="fill: #add8e6; stroke: #add8e6"/>
     <use xlink:href="#mf506bd5639" x="371.432727" y="101.08093" style="fill: #add8e6; stroke: #add8e6"/>
     <use xlink:href="#mf506bd5639" x="398.487273" y="94.349931" style="fill: #add8e6; stroke: #add8e6"/>
    </g>
   </g>
   <g id="line2d_27">
    <g clip-path="url(#p69a0c80c89)">
     <use xlink:href="#mf506bd5639" x="73.832727" y="90.786462" style="fill: #add8e6; stroke: #add8e6"/>
     <use xlink:href="#mf506bd5639" x="100.887273" y="85.243286" style="fill: #add8e6; stroke: #add8e6"/>
     <use xlink:href="#mf506bd5639" x="127.941818" y="78.512288" style="fill: #add8e6; stroke: #add8e6"/>
     <use xlink:href="#mf506bd5639" x="154.996364" y="74.552877" style="fill: #add8e6; stroke: #add8e6"/>
     <use xlink:href="#mf506bd5639" x="182.050909" y="84.847345" style="fill: #add8e6; stroke: #add8e6"/>
     <use xlink:href="#mf506bd5639" x="209.105455" y="72.573172" style="fill: #add8e6; stroke: #add8e6"/>
     <use xlink:href="#mf506bd5639" x="236.16" y="83.263581" style="fill: #add8e6; stroke: #add8e6"/>
     <use xlink:href="#mf506bd5639" x="263.214545" y="78.116347" style="fill: #add8e6; stroke: #add8e6"/>
     <use xlink:href="#mf506bd5639" x="290.269091" y="75.7407" style="fill: #add8e6; stroke: #add8e6"/>
     <use xlink:href="#mf506bd5639" x="317.323636" y="80.096052" style="fill: #add8e6; stroke: #add8e6"/>
     <use xlink:href="#mf506bd5639" x="344.378182" y="70.989408" style="fill: #add8e6; stroke: #add8e6"/>
     <use xlink:href="#mf506bd5639" x="371.432727" y="74.156936" style="fill: #add8e6; stroke: #add8e6"/>
     <use xlink:href="#mf506bd5639" x="398.487273" y="74.948818" style="fill: #add8e6; stroke: #add8e6"/>
    </g>
   </g>
   <g id="line2d_28">
    <path d="M 73.832727 62.714239 
L 100.887273 59.88326 
L 127.941818 60.516766 
L 154.996364 62.23911 
L 182.050909 63.466527 
L 209.105455 62.753833 
L 236.16 64.911712 
L 263.214545 65.624406 
L 290.269091 65.307653 
L 317.323636 67.782285 
L 344.378182 69.267064 
L 371.432727 70.237119 
L 398.487273 70.613264 
" clip-path="url(#p69a0c80c89)" style="fill: none; stroke: #0000ff; stroke-width: 1.5; stroke-linecap: square"/>
   </g>
   <g id="LineCollection_2">
    <path d="M 73.832727 70.197525 
L 73.832727 54.359882 
" clip-path="url(#p69a0c80c89)" style="fill: none; stroke: #0000ff; stroke-width: 1.5"/>
    <path d="M 100.887273 70.593466 
L 100.887273 54.755823 
" clip-path="url(#p69a0c80c89)" style="fill: none; stroke: #0000ff; stroke-width: 1.5"/>
    <path d="M 127.941818 67.425938 
L 127.941818 53.963941 
" clip-path="url(#p69a0c80c89)" style="fill: none; stroke: #0000ff; stroke-width: 1.5"/>
    <path d="M 154.996364 67.425938 
L 154.996364 58.715234 
" clip-path="url(#p69a0c80c89)" style="fill: none; stroke: #0000ff; stroke-width: 1.5"/>
    <path d="M 182.050909 68.21782 
L 182.050909 58.715234 
" clip-path="url(#p69a0c80c89)" style="fill: none; stroke: #0000ff; stroke-width: 1.5"/>
    <path d="M 209.105455 69.801584 
L 209.105455 57.923352 
" clip-path="url(#p69a0c80c89)" style="fill: none; stroke: #0000ff; stroke-width: 1.5"/>
    <path d="M 236.16 75.7407 
L 236.16 58.715234 
" clip-path="url(#p69a0c80c89)" style="fill: none; stroke: #0000ff; stroke-width: 1.5"/>
    <path d="M 263.214545 72.177231 
L 263.214545 59.507116 
" clip-path="url(#p69a0c80c89)" style="fill: none; stroke: #0000ff; stroke-width: 1.5"/>
    <path d="M 290.269091 74.552877 
L 290.269091 59.903057 
" clip-path="url(#p69a0c80c89)" style="fill: none; stroke: #0000ff; stroke-width: 1.5"/>
    <path d="M 317.323636 77.324465 
L 317.323636 59.507116 
" clip-path="url(#p69a0c80c89)" style="fill: none; stroke: #0000ff; stroke-width: 1.5"/>
    <path d="M 344.378182 82.075758 
L 344.378182 59.111175 
" clip-path="url(#p69a0c80c89)" style="fill: none; stroke: #0000ff; stroke-width: 1.5"/>
    <path d="M 371.432727 79.30417 
L 371.432727 59.507116 
" clip-path="url(#p69a0c80c89)" style="fill: none; stroke: #0000ff; stroke-width: 1.5"/>
    <path d="M 398.487273 78.116347 
L 398.487273 61.882763 
" clip-path="url(#p69a0c80c89)" style="fill: none; stroke: #0000ff; stroke-width: 1.5"/>
   </g>
   <g id="line2d_29">
    <defs>
     <path id="m7cbef27a7b" d="M 8 0 
L -8 -0 
" style="stroke: #0000ff"/>
    </defs>
    <g clip-path="url(#p69a0c80c89)">
     <use xlink:href="#m7cbef27a7b" x="73.832727" y="70.197525" style="fill: #0000ff; stroke: #0000ff"/>
     <use xlink:href="#m7cbef27a7b" x="100.887273" y="70.593466" style="fill: #0000ff; stroke: #0000ff"/>
     <use xlink:href="#m7cbef27a7b" x="127.941818" y="67.425938" style="fill: #0000ff; stroke: #0000ff"/>
     <use xlink:href="#m7cbef27a7b" x="154.996364" y="67.425938" style="fill: #0000ff; stroke: #0000ff"/>
     <use xlink:href="#m7cbef27a7b" x="182.050909" y="68.21782" style="fill: #0000ff; stroke: #0000ff"/>
     <use xlink:href="#m7cbef27a7b" x="209.105455" y="69.801584" style="fill: #0000ff; stroke: #0000ff"/>
     <use xlink:href="#m7cbef27a7b" x="236.16" y="75.7407" style="fill: #0000ff; stroke: #0000ff"/>
     <use xlink:href="#m7cbef27a7b" x="263.214545" y="72.177231" style="fill: #0000ff; stroke: #0000ff"/>
     <use xlink:href="#m7cbef27a7b" x="290.269091" y="74.552877" style="fill: #0000ff; stroke: #0000ff"/>
     <use xlink:href="#m7cbef27a7b" x="317.323636" y="77.324465" style="fill: #0000ff; stroke: #0000ff"/>
     <use xlink:href="#m7cbef27a7b" x="344.378182" y="82.075758" style="fill: #0000ff; stroke: #0000ff"/>
     <use xlink:href="#m7cbef27a7b" x="371.432727" y="79.30417" style="fill: #0000ff; stroke: #0000ff"/>
     <use xlink:href="#m7cbef27a7b" x="398.487273" y="78.116347" style="fill: #0000ff; stroke: #0000ff"/>
    </g>
   </g>
   <g id="line2d_30">
    <g clip-path="url(#p69a0c80c89)">
     <use xlink:href="#m7cbef27a7b" x="73.832727" y="54.359882" style="fill: #0000ff; stroke: #0000ff"/>
     <use xlink:href="#m7cbef27a7b" x="100.887273" y="54.755823" style="fill: #0000ff; stroke: #0000ff"/>
     <use xlink:href="#m7cbef27a7b" x="127.941818" y="53.963941" style="fill: #0000ff; stroke: #0000ff"/>
     <use xlink:href="#m7cbef27a7b" x="154.996364" y="58.715234" style="fill: #0000ff; stroke: #0000ff"/>
     <use xlink:href="#m7cbef27a7b" x="182.050909" y="58.715234" style="fill: #0000ff; stroke: #0000ff"/>
     <use xlink:href="#m7cbef27a7b" x="209.105455" y="57.923352" style="fill: #0000ff; stroke: #0000ff"/>
     <use xlink:href="#m7cbef27a7b" x="236.16" y="58.715234" style="fill: #0000ff; stroke: #0000ff"/>
     <use xlink:href="#m7cbef27a7b" x="263.214545" y="59.507116" style="fill: #0000ff; stroke: #0000ff"/>
     <use xlink:href="#m7cbef27a7b" x="290.269091" y="59.903057" style="fill: #0000ff; stroke: #0000ff"/>
     <use xlink:href="#m7cbef27a7b" x="317.323636" y="59.507116" style="fill: #0000ff; stroke: #0000ff"/>
     <use xlink:href="#m7cbef27a7b" x="344.378182" y="59.111175" style="fill: #0000ff; stroke: #0000ff"/>
     <use xlink:href="#m7cbef27a7b" x="371.432727" y="59.507116" style="fill: #0000ff; stroke: #0000ff"/>
     <use xlink:href="#m7cbef27a7b" x="398.487273" y="61.882763" style="fill: #0000ff; stroke: #0000ff"/>
    </g>
   </g>
   <g id="line2d_31">
    <path d="M 73.832727 96.468216 
L 100.887273 92.528602 
L 127.941818 88.232642 
L 154.996364 84.688969 
L 182.050909 81.363064 
L 209.105455 79.858488 
L 236.16 79.739705 
L 263.214545 76.07725 
L 290.269091 75.285368 
L 317.323636 75.701106 
L 344.378182 76.275221 
L 371.432727 74.810239 
L 398.487273 73.226475 
" clip-path="url(#p69a0c80c89)" style="fill: none; stroke: #fa8072; stroke-width: 1.5; stroke-linecap: square"/>
   </g>
   <g id="LineCollection_3">
    <path d="M 73.832727 111.375398 
L 73.832727 84.055463 
" clip-path="url(#p69a0c80c89)" style="fill: none; stroke: #fa8072; stroke-width: 1.5"/>
    <path d="M 100.887273 121.273925 
L 100.887273 78.512288 
" clip-path="url(#p69a0c80c89)" style="fill: none; stroke: #fa8072; stroke-width: 1.5"/>
    <path d="M 127.941818 99.497165 
L 127.941818 75.344759 
" clip-path="url(#p69a0c80c89)" style="fill: none; stroke: #fa8072; stroke-width: 1.5"/>
    <path d="M 154.996364 95.141813 
L 154.996364 68.21782 
" clip-path="url(#p69a0c80c89)" style="fill: none; stroke: #fa8072; stroke-width: 1.5"/>
    <path d="M 182.050909 91.182403 
L 182.050909 68.21782 
" clip-path="url(#p69a0c80c89)" style="fill: none; stroke: #fa8072; stroke-width: 1.5"/>
    <path d="M 209.105455 96.329637 
L 209.105455 66.634056 
" clip-path="url(#p69a0c80c89)" style="fill: none; stroke: #fa8072; stroke-width: 1.5"/>
    <path d="M 236.16 89.994579 
L 236.16 71.385349 
" clip-path="url(#p69a0c80c89)" style="fill: none; stroke: #fa8072; stroke-width: 1.5"/>
    <path d="M 263.214545 88.806756 
L 263.214545 66.238115 
" clip-path="url(#p69a0c80c89)" style="fill: none; stroke: #fa8072; stroke-width: 1.5"/>
    <path d="M 290.269091 95.141813 
L 290.269091 63.070586 
" clip-path="url(#p69a0c80c89)" style="fill: none; stroke: #fa8072; stroke-width: 1.5"/>
    <path d="M 317.323636 86.43111 
L 317.323636 69.405643 
" clip-path="url(#p69a0c80c89)" style="fill: none; stroke: #fa8072; stroke-width: 1.5"/>
    <path d="M 344.378182 86.035169 
L 344.378182 70.593466 
" clip-path="url(#p69a0c80c89)" style="fill: none; stroke: #fa8072; stroke-width: 1.5"/>
    <path d="M 371.432727 82.471699 
L 371.432727 65.050291 
" clip-path="url(#p69a0c80c89)" style="fill: none; stroke: #fa8072; stroke-width: 1.5"/>
    <path d="M 398.487273 90.39052 
L 398.487273 65.050291 
" clip-path="url(#p69a0c80c89)" style="fill: none; stroke: #fa8072; stroke-width: 1.5"/>
   </g>
   <g id="line2d_32">
    <defs>
     <path id="m78c3f26ecf" d="M 8 0 
L -8 -0 
" style="stroke: #fa8072"/>
    </defs>
    <g clip-path="url(#p69a0c80c89)">
     <use xlink:href="#m78c3f26ecf" x="73.832727" y="111.375398" style="fill: #fa8072; stroke: #fa8072"/>
     <use xlink:href="#m78c3f26ecf" x="100.887273" y="121.273925" style="fill: #fa8072; stroke: #fa8072"/>
     <use xlink:href="#m78c3f26ecf" x="127.941818" y="99.497165" style="fill: #fa8072; stroke: #fa8072"/>
     <use xlink:href="#m78c3f26ecf" x="154.996364" y="95.141813" style="fill: #fa8072; stroke: #fa8072"/>
     <use xlink:href="#m78c3f26ecf" x="182.050909" y="91.182403" style="fill: #fa8072; stroke: #fa8072"/>
     <use xlink:href="#m78c3f26ecf" x="209.105455" y="96.329637" style="fill: #fa8072; stroke: #fa8072"/>
     <use xlink:href="#m78c3f26ecf" x="236.16" y="89.994579" style="fill: #fa8072; stroke: #fa8072"/>
     <use xlink:href="#m78c3f26ecf" x="263.214545" y="88.806756" style="fill: #fa8072; stroke: #fa8072"/>
     <use xlink:href="#m78c3f26ecf" x="290.269091" y="95.141813" style="fill: #fa8072; stroke: #fa8072"/>
     <use xlink:href="#m78c3f26ecf" x="317.323636" y="86.43111" style="fill: #fa8072; stroke: #fa8072"/>
     <use xlink:href="#m78c3f26ecf" x="344.378182" y="86.035169" style="fill: #fa8072; stroke: #fa8072"/>
     <use xlink:href="#m78c3f26ecf" x="371.432727" y="82.471699" style="fill: #fa8072; stroke: #fa8072"/>
     <use xlink:href="#m78c3f26ecf" x="398.487273" y="90.39052" style="fill: #fa8072; stroke: #fa8072"/>
    </g>
   </g>
   <g id="line2d_33">
    <g clip-path="url(#p69a0c80c89)">
     <use xlink:href="#m78c3f26ecf" x="73.832727" y="84.055463" style="fill: #fa8072; stroke: #fa8072"/>
     <use xlink:href="#m78c3f26ecf" x="100.887273" y="78.512288" style="fill: #fa8072; stroke: #fa8072"/>
     <use xlink:href="#m78c3f26ecf" x="127.941818" y="75.344759" style="fill: #fa8072; stroke: #fa8072"/>
     <use xlink:href="#m78c3f26ecf" x="154.996364" y="68.21782" style="fill: #fa8072; stroke: #fa8072"/>
     <use xlink:href="#m78c3f26ecf" x="182.050909" y="68.21782" style="fill: #fa8072; stroke: #fa8072"/>
     <use xlink:href="#m78c3f26ecf" x="209.105455" y="66.634056" style="fill: #fa8072; stroke: #fa8072"/>
     <use xlink:href="#m78c3f26ecf" x="236.16" y="71.385349" style="fill: #fa8072; stroke: #fa8072"/>
     <use xlink:href="#m78c3f26ecf" x="263.214545" y="66.238115" style="fill: #fa8072; stroke: #fa8072"/>
     <use xlink:href="#m78c3f26ecf" x="290.269091" y="63.070586" style="fill: #fa8072; stroke: #fa8072"/>
     <use xlink:href="#m78c3f26ecf" x="317.323636" y="69.405643" style="fill: #fa8072; stroke: #fa8072"/>
     <use xlink:href="#m78c3f26ecf" x="344.378182" y="70.593466" style="fill: #fa8072; stroke: #fa8072"/>
     <use xlink:href="#m78c3f26ecf" x="371.432727" y="65.050291" style="fill: #fa8072; stroke: #fa8072"/>
     <use xlink:href="#m78c3f26ecf" x="398.487273" y="65.050291" style="fill: #fa8072; stroke: #fa8072"/>
    </g>
   </g>
   <g id="line2d_34">
    <path d="M 73.832727 62.278704 
L 100.887273 68.831529 
L 127.941818 71.345755 
L 154.996364 78.472694 
L 182.050909 89.856 
L 209.105455 86.787457 
L 236.16 96.250448 
L 263.214545 110.504327 
L 290.269091 124.560236 
L 317.323636 143.327843 
L 344.378182 168.984825 
L 371.432727 172.251339 
L 398.487273 198.878376 
" clip-path="url(#p69a0c80c89)" style="fill: none; stroke: #ffa500; stroke-width: 1.5; stroke-linecap: square"/>
   </g>
   <g id="LineCollection_4">
    <path d="M 73.832727 70.989408 
L 73.832727 54.359882 
" clip-path="url(#p69a0c80c89)" style="fill: none; stroke: #ffa500; stroke-width: 1.5"/>
    <path d="M 100.887273 88.014874 
L 100.887273 55.943646 
" clip-path="url(#p69a0c80c89)" style="fill: none; stroke: #ffa500; stroke-width: 1.5"/>
    <path d="M 127.941818 86.035169 
L 127.941818 53.568 
" clip-path="url(#p69a0c80c89)" style="fill: none; stroke: #ffa500; stroke-width: 1.5"/>
    <path d="M 154.996364 95.933696 
L 154.996364 57.13147 
" clip-path="url(#p69a0c80c89)" style="fill: none; stroke: #ffa500; stroke-width: 1.5"/>
    <path d="M 182.050909 114.542926 
L 182.050909 67.425938 
" clip-path="url(#p69a0c80c89)" style="fill: none; stroke: #ffa500; stroke-width: 1.5"/>
    <path d="M 209.105455 117.710455 
L 209.105455 67.425938 
" clip-path="url(#p69a0c80c89)" style="fill: none; stroke: #ffa500; stroke-width: 1.5"/>
    <path d="M 236.16 125.233336 
L 236.16 61.486822 
" clip-path="url(#p69a0c80c89)" style="fill: none; stroke: #ffa500; stroke-width: 1.5"/>
    <path d="M 263.214545 135.131863 
L 263.214545 78.908229 
" clip-path="url(#p69a0c80c89)" style="fill: none; stroke: #ffa500; stroke-width: 1.5"/>
    <path d="M 290.269091 170.76656 
L 290.269091 93.558049 
" clip-path="url(#p69a0c80c89)" style="fill: none; stroke: #ffa500; stroke-width: 1.5"/>
    <path d="M 317.323636 196.50273 
L 317.323636 88.410815 
" clip-path="url(#p69a0c80c89)" style="fill: none; stroke: #ffa500; stroke-width: 1.5"/>
    <path d="M 344.378182 224.218606 
L 344.378182 110.187574 
" clip-path="url(#p69a0c80c89)" style="fill: none; stroke: #ffa500; stroke-width: 1.5"/>
    <path d="M 371.432727 226.990193 
L 371.432727 111.375398 
" clip-path="url(#p69a0c80c89)" style="fill: none; stroke: #ffa500; stroke-width: 1.5"/>
    <path d="M 398.487273 295.488 
L 398.487273 115.73075 
" clip-path="url(#p69a0c80c89)" style="fill: none; stroke: #ffa500; stroke-width: 1.5"/>
   </g>
   <g id="line2d_35">
    <defs>
     <path id="m5716109315" d="M 8 0 
L -8 -0 
" style="stroke: #ffa500"/>
    </defs>
    <g clip-path="url(#p69a0c80c89)">
     <use xlink:href="#m5716109315" x="73.832727" y="70.989408" style="fill: #ffa500; stroke: #ffa500"/>
     <use xlink:href="#m5716109315" x="100.887273" y="88.014874" style="fill: #ffa500; stroke: #ffa500"/>
     <use xlink:href="#m5716109315" x="127.941818" y="86.035169" style="fill: #ffa500; stroke: #ffa500"/>
     <use xlink:href="#m5716109315" x="154.996364" y="95.933696" style="fill: #ffa500; stroke: #ffa500"/>
     <use xlink:href="#m5716109315" x="182.050909" y="114.542926" style="fill: #ffa500; stroke: #ffa500"/>
     <use xlink:href="#m5716109315" x="209.105455" y="117.710455" style="fill: #ffa500; stroke: #ffa500"/>
     <use xlink:href="#m5716109315" x="236.16" y="125.233336" style="fill: #ffa500; stroke: #ffa500"/>
     <use xlink:href="#m5716109315" x="263.214545" y="135.131863" style="fill: #ffa500; stroke: #ffa500"/>
     <use xlink:href="#m5716109315" x="290.269091" y="170.76656" style="fill: #ffa500; stroke: #ffa500"/>
     <use xlink:href="#m5716109315" x="317.323636" y="196.50273" style="fill: #ffa500; stroke: #ffa500"/>
     <use xlink:href="#m5716109315" x="344.378182" y="224.218606" style="fill: #ffa500; stroke: #ffa500"/>
     <use xlink:href="#m5716109315" x="371.432727" y="226.990193" style="fill: #ffa500; stroke: #ffa500"/>
     <use xlink:href="#m5716109315" x="398.487273" y="295.488" style="fill: #ffa500; stroke: #ffa500"/>
    </g>
   </g>
   <g id="line2d_36">
    <g clip-path="url(#p69a0c80c89)">
     <use xlink:href="#m5716109315" x="73.832727" y="54.359882" style="fill: #ffa500; stroke: #ffa500"/>
     <use xlink:href="#m5716109315" x="100.887273" y="55.943646" style="fill: #ffa500; stroke: #ffa500"/>
     <use xlink:href="#m5716109315" x="127.941818" y="53.568" style="fill: #ffa500; stroke: #ffa500"/>
     <use xlink:href="#m5716109315" x="154.996364" y="57.13147" style="fill: #ffa500; stroke: #ffa500"/>
     <use xlink:href="#m5716109315" x="182.050909" y="67.425938" style="fill: #ffa500; stroke: #ffa500"/>
     <use xlink:href="#m5716109315" x="209.105455" y="67.425938" style="fill: #ffa500; stroke: #ffa500"/>
     <use xlink:href="#m5716109315" x="236.16" y="61.486822" style="fill: #ffa500; stroke: #ffa500"/>
     <use xlink:href="#m5716109315" x="263.214545" y="78.908229" style="fill: #ffa500; stroke: #ffa500"/>
     <use xlink:href="#m5716109315" x="290.269091" y="93.558049" style="fill: #ffa500; stroke: #ffa500"/>
     <use xlink:href="#m5716109315" x="317.323636" y="88.410815" style="fill: #ffa500; stroke: #ffa500"/>
     <use xlink:href="#m5716109315" x="344.378182" y="110.187574" style="fill: #ffa500; stroke: #ffa500"/>
     <use xlink:href="#m5716109315" x="371.432727" y="111.375398" style="fill: #ffa500; stroke: #ffa500"/>
     <use xlink:href="#m5716109315" x="398.487273" y="115.73075" style="fill: #ffa500; stroke: #ffa500"/>
    </g>
   </g>
   <g id="line2d_37">
    <defs>
     <path id="m82c7ed8ec4" d="M 0 3 
C 0.795609 3 1.55874 2.683901 2.12132 2.12132 
C 2.683901 1.55874 3 0.795609 3 0 
C 3 -0.795609 2.683901 -1.55874 2.12132 -2.12132 
C 1.55874 -2.683901 0.795609 -3 0 -3 
C -0.795609 -3 -1.55874 -2.683901 -2.12132 -2.12132 
C -2.683901 -1.55874 -3 -0.795609 -3 0 
C -3 0.795609 -2.683901 1.55874 -2.12132 2.12132 
C -1.55874 2.683901 -0.795609 3 0 3 
z
" style="stroke: #add8e6"/>
    </defs>
    <g clip-path="url(#p69a0c80c89)">
     <use xlink:href="#m82c7ed8ec4" x="73.832727" y="110.642907" style="fill: #add8e6; stroke: #add8e6"/>
     <use xlink:href="#m82c7ed8ec4" x="100.887273" y="102.328144" style="fill: #add8e6; stroke: #add8e6"/>
     <use xlink:href="#m82c7ed8ec4" x="127.941818" y="95.181408" style="fill: #add8e6; stroke: #add8e6"/>
     <use xlink:href="#m82c7ed8ec4" x="154.996364" y="91.994082" style="fill: #add8e6; stroke: #add8e6"/>
     <use xlink:href="#m82c7ed8ec4" x="182.050909" y="97.339286" style="fill: #add8e6; stroke: #add8e6"/>
     <use xlink:href="#m82c7ed8ec4" x="209.105455" y="89.895594" style="fill: #add8e6; stroke: #add8e6"/>
     <use xlink:href="#m82c7ed8ec4" x="236.16" y="92.647385" style="fill: #add8e6; stroke: #add8e6"/>
     <use xlink:href="#m82c7ed8ec4" x="263.214545" y="88.272236" style="fill: #add8e6; stroke: #add8e6"/>
     <use xlink:href="#m82c7ed8ec4" x="290.269091" y="87.876295" style="fill: #add8e6; stroke: #add8e6"/>
     <use xlink:href="#m82c7ed8ec4" x="317.323636" y="88.866147" style="fill: #add8e6; stroke: #add8e6"/>
     <use xlink:href="#m82c7ed8ec4" x="344.378182" y="83.382363" style="fill: #add8e6; stroke: #add8e6"/>
     <use xlink:href="#m82c7ed8ec4" x="371.432727" y="83.778304" style="fill: #add8e6; stroke: #add8e6"/>
     <use xlink:href="#m82c7ed8ec4" x="398.487273" y="84.867142" style="fill: #add8e6; stroke: #add8e6"/>
    </g>
   </g>
   <g id="line2d_38">
    <defs>
     <path id="ma1f9b19413" d="M 0 3 
C 0.795609 3 1.55874 2.683901 2.12132 2.12132 
C 2.683901 1.55874 3 0.795609 3 0 
C 3 -0.795609 2.683901 -1.55874 2.12132 -2.12132 
C 1.55874 -2.683901 0.795609 -3 0 -3 
C -0.795609 -3 -1.55874 -2.683901 -2.12132 -2.12132 
C -2.683901 -1.55874 -3 -0.795609 -3 0 
C -3 0.795609 -2.683901 1.55874 -2.12132 2.12132 
C -1.55874 2.683901 -0.795609 3 0 3 
z
" style="stroke: #0000ff"/>
    </defs>
    <g clip-path="url(#p69a0c80c89)">
     <use xlink:href="#ma1f9b19413" x="73.832727" y="62.714239" style="fill: #0000ff; stroke: #0000ff"/>
     <use xlink:href="#ma1f9b19413" x="100.887273" y="59.88326" style="fill: #0000ff; stroke: #0000ff"/>
     <use xlink:href="#ma1f9b19413" x="127.941818" y="60.516766" style="fill: #0000ff; stroke: #0000ff"/>
     <use xlink:href="#ma1f9b19413" x="154.996364" y="62.23911" style="fill: #0000ff; stroke: #0000ff"/>
     <use xlink:href="#ma1f9b19413" x="182.050909" y="63.466527" style="fill: #0000ff; stroke: #0000ff"/>
     <use xlink:href="#ma1f9b19413" x="209.105455" y="62.753833" style="fill: #0000ff; stroke: #0000ff"/>
     <use xlink:href="#ma1f9b19413" x="236.16" y="64.911712" style="fill: #0000ff; stroke: #0000ff"/>
     <use xlink:href="#ma1f9b19413" x="263.214545" y="65.624406" style="fill: #0000ff; stroke: #0000ff"/>
     <use xlink:href="#ma1f9b19413" x="290.269091" y="65.307653" style="fill: #0000ff; stroke: #0000ff"/>
     <use xlink:href="#ma1f9b19413" x="317.323636" y="67.782285" style="fill: #0000ff; stroke: #0000ff"/>
     <use xlink:href="#ma1f9b19413" x="344.378182" y="69.267064" style="fill: #0000ff; stroke: #0000ff"/>
     <use xlink:href="#ma1f9b19413" x="371.432727" y="70.237119" style="fill: #0000ff; stroke: #0000ff"/>
     <use xlink:href="#ma1f9b19413" x="398.487273" y="70.613264" style="fill: #0000ff; stroke: #0000ff"/>
    </g>
   </g>
   <g id="line2d_39">
    <defs>
     <path id="m6946d89e48" d="M 0 3 
C 0.795609 3 1.55874 2.683901 2.12132 2.12132 
C 2.683901 1.55874 3 0.795609 3 0 
C 3 -0.795609 2.683901 -1.55874 2.12132 -2.12132 
C 1.55874 -2.683901 0.795609 -3 0 -3 
C -0.795609 -3 -1.55874 -2.683901 -2.12132 -2.12132 
C -2.683901 -1.55874 -3 -0.795609 -3 0 
C -3 0.795609 -2.683901 1.55874 -2.12132 2.12132 
C -1.55874 2.683901 -0.795609 3 0 3 
z
" style="stroke: #fa8072"/>
    </defs>
    <g clip-path="url(#p69a0c80c89)">
     <use xlink:href="#m6946d89e48" x="73.832727" y="96.468216" style="fill: #fa8072; stroke: #fa8072"/>
     <use xlink:href="#m6946d89e48" x="100.887273" y="92.528602" style="fill: #fa8072; stroke: #fa8072"/>
     <use xlink:href="#m6946d89e48" x="127.941818" y="88.232642" style="fill: #fa8072; stroke: #fa8072"/>
     <use xlink:href="#m6946d89e48" x="154.996364" y="84.688969" style="fill: #fa8072; stroke: #fa8072"/>
     <use xlink:href="#m6946d89e48" x="182.050909" y="81.363064" style="fill: #fa8072; stroke: #fa8072"/>
     <use xlink:href="#m6946d89e48" x="209.105455" y="79.858488" style="fill: #fa8072; stroke: #fa8072"/>
     <use xlink:href="#m6946d89e48" x="236.16" y="79.739705" style="fill: #fa8072; stroke: #fa8072"/>
     <use xlink:href="#m6946d89e48" x="263.214545" y="76.07725" style="fill: #fa8072; stroke: #fa8072"/>
     <use xlink:href="#m6946d89e48" x="290.269091" y="75.285368" style="fill: #fa8072; stroke: #fa8072"/>
     <use xlink:href="#m6946d89e48" x="317.323636" y="75.701106" style="fill: #fa8072; stroke: #fa8072"/>
     <use xlink:href="#m6946d89e48" x="344.378182" y="76.275221" style="fill: #fa8072; stroke: #fa8072"/>
     <use xlink:href="#m6946d89e48" x="371.432727" y="74.810239" style="fill: #fa8072; stroke: #fa8072"/>
     <use xlink:href="#m6946d89e48" x="398.487273" y="73.226475" style="fill: #fa8072; stroke: #fa8072"/>
    </g>
   </g>
   <g id="line2d_40">
    <defs>
     <path id="me7351e4695" d="M 0 3 
C 0.795609 3 1.55874 2.683901 2.12132 2.12132 
C 2.683901 1.55874 3 0.795609 3 0 
C 3 -0.795609 2.683901 -1.55874 2.12132 -2.12132 
C 1.55874 -2.683901 0.795609 -3 0 -3 
C -0.795609 -3 -1.55874 -2.683901 -2.12132 -2.12132 
C -2.683901 -1.55874 -3 -0.795609 -3 0 
C -3 0.795609 -2.683901 1.55874 -2.12132 2.12132 
C -1.55874 2.683901 -0.795609 3 0 3 
z
" style="stroke: #ffa500"/>
    </defs>
    <g clip-path="url(#p69a0c80c89)">
     <use xlink:href="#me7351e4695" x="73.832727" y="62.278704" style="fill: #ffa500; stroke: #ffa500"/>
     <use xlink:href="#me7351e4695" x="100.887273" y="68.831529" style="fill: #ffa500; stroke: #ffa500"/>
     <use xlink:href="#me7351e4695" x="127.941818" y="71.345755" style="fill: #ffa500; stroke: #ffa500"/>
     <use xlink:href="#me7351e4695" x="154.996364" y="78.472694" style="fill: #ffa500; stroke: #ffa500"/>
     <use xlink:href="#me7351e4695" x="182.050909" y="89.856" style="fill: #ffa500; stroke: #ffa500"/>
     <use xlink:href="#me7351e4695" x="209.105455" y="86.787457" style="fill: #ffa500; stroke: #ffa500"/>
     <use xlink:href="#me7351e4695" x="236.16" y="96.250448" style="fill: #ffa500; stroke: #ffa500"/>
     <use xlink:href="#me7351e4695" x="263.214545" y="110.504327" style="fill: #ffa500; stroke: #ffa500"/>
     <use xlink:href="#me7351e4695" x="290.269091" y="124.560236" style="fill: #ffa500; stroke: #ffa500"/>
     <use xlink:href="#me7351e4695" x="317.323636" y="143.327843" style="fill: #ffa500; stroke: #ffa500"/>
     <use xlink:href="#me7351e4695" x="344.378182" y="168.984825" style="fill: #ffa500; stroke: #ffa500"/>
     <use xlink:href="#me7351e4695" x="371.432727" y="172.251339" style="fill: #ffa500; stroke: #ffa500"/>
     <use xlink:href="#me7351e4695" x="398.487273" y="198.878376" style="fill: #ffa500; stroke: #ffa500"/>
    </g>
   </g>
   <g id="patch_3">
    <path d="M 57.6 307.584 
L 57.6 41.472 
" style="fill: none; stroke: #000000; stroke-width: 0.8; stroke-linejoin: miter; stroke-linecap: square"/>
   </g>
   <g id="patch_4">
    <path d="M 414.72 307.584 
L 414.72 41.472 
" style="fill: none; stroke: #000000; stroke-width: 0.8; stroke-linejoin: miter; stroke-linecap: square"/>
   </g>
   <g id="patch_5">
    <path d="M 57.6 307.584 
L 414.72 307.584 
" style="fill: none; stroke: #000000; stroke-width: 0.8; stroke-linejoin: miter; stroke-linecap: square"/>
   </g>
   <g id="patch_6">
    <path d="M 57.6 41.472 
L 414.72 41.472 
" style="fill: none; stroke: #000000; stroke-width: 0.8; stroke-linejoin: miter; stroke-linecap: square"/>
   </g>
   <g id="text_15">
    <!-- Accuracy for different values of g. Quantization Q16 -->
    <g transform="translate(79.8825 35.472) scale(0.12 -0.12)">
     <defs>
      <path id="DejaVuSans-76" d="M 191 3500 
L 800 3500 
L 1894 563 
L 2988 3500 
L 3597 3500 
L 2284 0 
L 1503 0 
L 191 3500 
z
" transform="scale(0.015625)"/>
      <path id="DejaVuSans-6c" d="M 603 4863 
L 1178 4863 
L 1178 0 
L 603 0 
L 603 4863 
z
" transform="scale(0.015625)"/>
      <path id="DejaVuSans-67" d="M 2906 1791 
Q 2906 2416 2648 2759 
Q 2391 3103 1925 3103 
Q 1463 3103 1205 2759 
Q 947 2416 947 1791 
Q 947 1169 1205 825 
Q 1463 481 1925 481 
Q 2391 481 2648 825 
Q 2906 1169 2906 1791 
z
M 3481 434 
Q 3481 -459 3084 -895 
Q 2688 -1331 1869 -1331 
Q 1566 -1331 1297 -1286 
Q 1028 -1241 775 -1147 
L 775 -588 
Q 1028 -725 1275 -790 
Q 1522 -856 1778 -856 
Q 2344 -856 2625 -561 
Q 2906 -266 2906 331 
L 2906 616 
Q 2728 306 2450 153 
Q 2172 0 1784 0 
Q 1141 0 747 490 
Q 353 981 353 1791 
Q 353 2603 747 3093 
Q 1141 3584 1784 3584 
Q 2172 3584 2450 3431 
Q 2728 3278 2906 2969 
L 2906 3500 
L 3481 3500 
L 3481 434 
z
" transform="scale(0.015625)"/>
      <path id="DejaVuSans-2e" d="M 684 794 
L 1344 794 
L 1344 0 
L 684 0 
L 684 794 
z
" transform="scale(0.015625)"/>
      <path id="DejaVuSans-51" d="M 2522 4238 
Q 1834 4238 1429 3725 
Q 1025 3213 1025 2328 
Q 1025 1447 1429 934 
Q 1834 422 2522 422 
Q 3209 422 3611 934 
Q 4013 1447 4013 2328 
Q 4013 3213 3611 3725 
Q 3209 4238 2522 4238 
z
M 3406 84 
L 4238 -825 
L 3475 -825 
L 2784 -78 
Q 2681 -84 2626 -87 
Q 2572 -91 2522 -91 
Q 1538 -91 948 567 
Q 359 1225 359 2328 
Q 359 3434 948 4092 
Q 1538 4750 2522 4750 
Q 3503 4750 4090 4092 
Q 4678 3434 4678 2328 
Q 4678 1516 4351 937 
Q 4025 359 3406 84 
z
" transform="scale(0.015625)"/>
      <path id="DejaVuSans-7a" d="M 353 3500 
L 3084 3500 
L 3084 2975 
L 922 459 
L 3084 459 
L 3084 0 
L 275 0 
L 275 525 
L 2438 3041 
L 353 3041 
L 353 3500 
z
" transform="scale(0.015625)"/>
      <path id="DejaVuSans-31" d="M 794 531 
L 1825 531 
L 1825 4091 
L 703 3866 
L 703 4441 
L 1819 4666 
L 2450 4666 
L 2450 531 
L 3481 531 
L 3481 0 
L 794 0 
L 794 531 
z
" transform="scale(0.015625)"/>
     </defs>
     <use xlink:href="#DejaVuSans-41"/>
     <use xlink:href="#DejaVuSans-63" x="66.658203"/>
     <use xlink:href="#DejaVuSans-63" x="121.638672"/>
     <use xlink:href="#DejaVuSans-75" x="176.619141"/>
     <use xlink:href="#DejaVuSans-72" x="239.998047"/>
     <use xlink:href="#DejaVuSans-61" x="281.111328"/>
     <use xlink:href="#DejaVuSans-63" x="342.390625"/>
     <use xlink:href="#DejaVuSans-79" x="397.371094"/>
     <use xlink:href="#DejaVuSans-20" x="456.550781"/>
     <use xlink:href="#DejaVuSans-66" x="488.337891"/>
     <use xlink:href="#DejaVuSans-6f" x="523.542969"/>
     <use xlink:href="#DejaVuSans-72" x="584.724609"/>
     <use xlink:href="#DejaVuSans-20" x="625.837891"/>
     <use xlink:href="#DejaVuSans-64" x="657.625"/>
     <use xlink:href="#DejaVuSans-69" x="721.101562"/>
     <use xlink:href="#DejaVuSans-66" x="748.884766"/>
     <use xlink:href="#DejaVuSans-66" x="784.089844"/>
     <use xlink:href="#DejaVuSans-65" x="819.294922"/>
     <use xlink:href="#DejaVuSans-72" x="880.818359"/>
     <use xlink:href="#DejaVuSans-65" x="919.681641"/>
     <use xlink:href="#DejaVuSans-6e" x="981.205078"/>
     <use xlink:href="#DejaVuSans-74" x="1044.583984"/>
     <use xlink:href="#DejaVuSans-20" x="1083.792969"/>
     <use xlink:href="#DejaVuSans-76" x="1115.580078"/>
     <use xlink:href="#DejaVuSans-61" x="1174.759766"/>
     <use xlink:href="#DejaVuSans-6c" x="1236.039062"/>
     <use xlink:href="#DejaVuSans-75" x="1263.822266"/>
     <use xlink:href="#DejaVuSans-65" x="1327.201172"/>
     <use xlink:href="#DejaVuSans-73" x="1388.724609"/>
     <use xlink:href="#DejaVuSans-20" x="1440.824219"/>
     <use xlink:href="#DejaVuSans-6f" x="1472.611328"/>
     <use xlink:href="#DejaVuSans-66" x="1533.792969"/>
     <use xlink:href="#DejaVuSans-20" x="1568.998047"/>
     <use xlink:href="#DejaVuSans-67" x="1600.785156"/>
     <use xlink:href="#DejaVuSans-2e" x="1664.261719"/>
     <use xlink:href="#DejaVuSans-20" x="1696.048828"/>
     <use xlink:href="#DejaVuSans-51" x="1727.835938"/>
     <use xlink:href="#DejaVuSans-75" x="1806.546875"/>
     <use xlink:href="#DejaVuSans-61" x="1869.925781"/>
     <use xlink:href="#DejaVuSans-6e" x="1931.205078"/>
     <use xlink:href="#DejaVuSans-74" x="1994.583984"/>
     <use xlink:href="#DejaVuSans-69" x="2033.792969"/>
     <use xlink:href="#DejaVuSans-7a" x="2061.576172"/>
     <use xlink:href="#DejaVuSans-61" x="2114.066406"/>
     <use xlink:href="#DejaVuSans-74" x="2175.345703"/>
     <use xlink:href="#DejaVuSans-69" x="2214.554688"/>
     <use xlink:href="#DejaVuSans-6f" x="2242.337891"/>
     <use xlink:href="#DejaVuSans-6e" x="2303.519531"/>
     <use xlink:href="#DejaVuSans-20" x="2366.898438"/>
     <use xlink:href="#DejaVuSans-51" x="2398.685547"/>
     <use xlink:href="#DejaVuSans-31" x="2477.396484"/>
     <use xlink:href="#DejaVuSans-36" x="2541.019531"/>
    </g>
   </g>
   <g id="legend_1">
    <g id="patch_7">
     <path d="M 64.6 302.584 
L 175.707812 302.584 
Q 177.707812 302.584 177.707812 300.584 
L 177.707812 242.8715 
Q 177.707812 240.8715 175.707812 240.8715 
L 64.6 240.8715 
Q 62.6 240.8715 62.6 242.8715 
L 62.6 300.584 
Q 62.6 302.584 64.6 302.584 
z
" style="fill: #ffffff; opacity: 0.8; stroke: #cccccc; stroke-linejoin: miter"/>
    </g>
    <g id="line2d_41">
     <path d="M 66.6 248.969937 
L 76.6 248.969937 
L 86.6 248.969937 
" style="fill: none; stroke: #add8e6; stroke-width: 1.5; stroke-linecap: square"/>
    </g>
    <g id="text_16">
     <!-- Ndiff=1, Dil=1 -->
     <g transform="translate(94.6 252.469937) scale(0.1 -0.1)">
      <defs>
       <path id="DejaVuSans-3d" d="M 678 2906 
L 4684 2906 
L 4684 2381 
L 678 2381 
L 678 2906 
z
M 678 1631 
L 4684 1631 
L 4684 1100 
L 678 1100 
L 678 1631 
z
" transform="scale(0.015625)"/>
       <path id="DejaVuSans-2c" d="M 750 794 
L 1409 794 
L 1409 256 
L 897 -744 
L 494 -744 
L 750 256 
L 750 794 
z
" transform="scale(0.015625)"/>
       <path id="DejaVuSans-44" d="M 1259 4147 
L 1259 519 
L 2022 519 
Q 2988 519 3436 956 
Q 3884 1394 3884 2338 
Q 3884 3275 3436 3711 
Q 2988 4147 2022 4147 
L 1259 4147 
z
M 628 4666 
L 1925 4666 
Q 3281 4666 3915 4102 
Q 4550 3538 4550 2338 
Q 4550 1131 3912 565 
Q 3275 0 1925 0 
L 628 0 
L 628 4666 
z
" transform="scale(0.015625)"/>
      </defs>
      <use xlink:href="#DejaVuSans-4e"/>
      <use xlink:href="#DejaVuSans-64" x="74.804688"/>
      <use xlink:href="#DejaVuSans-69" x="138.28125"/>
      <use xlink:href="#DejaVuSans-66" x="166.064453"/>
      <use xlink:href="#DejaVuSans-66" x="201.269531"/>
      <use xlink:href="#DejaVuSans-3d" x="236.474609"/>
      <use xlink:href="#DejaVuSans-31" x="320.263672"/>
      <use xlink:href="#DejaVuSans-2c" x="383.886719"/>
      <use xlink:href="#DejaVuSans-20" x="415.673828"/>
      <use xlink:href="#DejaVuSans-44" x="447.460938"/>
      <use xlink:href="#DejaVuSans-69" x="524.462891"/>
      <use xlink:href="#DejaVuSans-6c" x="552.246094"/>
      <use xlink:href="#DejaVuSans-3d" x="580.029297"/>
      <use xlink:href="#DejaVuSans-31" x="663.818359"/>
     </g>
    </g>
    <g id="line2d_42">
     <path d="M 66.6 263.648062 
L 76.6 263.648062 
L 86.6 263.648062 
" style="fill: none; stroke: #0000ff; stroke-width: 1.5; stroke-linecap: square"/>
    </g>
    <g id="text_17">
     <!-- Ndiff=1, Dil=10 -->
     <g transform="translate(94.6 267.148062) scale(0.1 -0.1)">
      <use xlink:href="#DejaVuSans-4e"/>
      <use xlink:href="#DejaVuSans-64" x="74.804688"/>
      <use xlink:href="#DejaVuSans-69" x="138.28125"/>
      <use xlink:href="#DejaVuSans-66" x="166.064453"/>
      <use xlink:href="#DejaVuSans-66" x="201.269531"/>
      <use xlink:href="#DejaVuSans-3d" x="236.474609"/>
      <use xlink:href="#DejaVuSans-31" x="320.263672"/>
      <use xlink:href="#DejaVuSans-2c" x="383.886719"/>
      <use xlink:href="#DejaVuSans-20" x="415.673828"/>
      <use xlink:href="#DejaVuSans-44" x="447.460938"/>
      <use xlink:href="#DejaVuSans-69" x="524.462891"/>
      <use xlink:href="#DejaVuSans-6c" x="552.246094"/>
      <use xlink:href="#DejaVuSans-3d" x="580.029297"/>
      <use xlink:href="#DejaVuSans-31" x="663.818359"/>
      <use xlink:href="#DejaVuSans-30" x="727.441406"/>
     </g>
    </g>
    <g id="line2d_43">
     <path d="M 66.6 278.326187 
L 76.6 278.326187 
L 86.6 278.326187 
" style="fill: none; stroke: #fa8072; stroke-width: 1.5; stroke-linecap: square"/>
    </g>
    <g id="text_18">
     <!-- Ndiff=2, Dil=1 -->
     <g transform="translate(94.6 281.826187) scale(0.1 -0.1)">
      <use xlink:href="#DejaVuSans-4e"/>
      <use xlink:href="#DejaVuSans-64" x="74.804688"/>
      <use xlink:href="#DejaVuSans-69" x="138.28125"/>
      <use xlink:href="#DejaVuSans-66" x="166.064453"/>
      <use xlink:href="#DejaVuSans-66" x="201.269531"/>
      <use xlink:href="#DejaVuSans-3d" x="236.474609"/>
      <use xlink:href="#DejaVuSans-32" x="320.263672"/>
      <use xlink:href="#DejaVuSans-2c" x="383.886719"/>
      <use xlink:href="#DejaVuSans-20" x="415.673828"/>
      <use xlink:href="#DejaVuSans-44" x="447.460938"/>
      <use xlink:href="#DejaVuSans-69" x="524.462891"/>
      <use xlink:href="#DejaVuSans-6c" x="552.246094"/>
      <use xlink:href="#DejaVuSans-3d" x="580.029297"/>
      <use xlink:href="#DejaVuSans-31" x="663.818359"/>
     </g>
    </g>
    <g id="line2d_44">
     <path d="M 66.6 293.004312 
L 76.6 293.004312 
L 86.6 293.004312 
" style="fill: none; stroke: #ffa500; stroke-width: 1.5; stroke-linecap: square"/>
    </g>
    <g id="text_19">
     <!-- Ndiff=2, Dil=10 -->
     <g transform="translate(94.6 296.504312) scale(0.1 -0.1)">
      <use xlink:href="#DejaVuSans-4e"/>
      <use xlink:href="#DejaVuSans-64" x="74.804688"/>
      <use xlink:href="#DejaVuSans-69" x="138.28125"/>
      <use xlink:href="#DejaVuSans-66" x="166.064453"/>
      <use xlink:href="#DejaVuSans-66" x="201.269531"/>
      <use xlink:href="#DejaVuSans-3d" x="236.474609"/>
      <use xlink:href="#DejaVuSans-32" x="320.263672"/>
      <use xlink:href="#DejaVuSans-2c" x="383.886719"/>
      <use xlink:href="#DejaVuSans-20" x="415.673828"/>
      <use xlink:href="#DejaVuSans-44" x="447.460938"/>
      <use xlink:href="#DejaVuSans-69" x="524.462891"/>
      <use xlink:href="#DejaVuSans-6c" x="552.246094"/>
      <use xlink:href="#DejaVuSans-3d" x="580.029297"/>
      <use xlink:href="#DejaVuSans-31" x="663.818359"/>
      <use xlink:href="#DejaVuSans-30" x="727.441406"/>
     </g>
    </g>
   </g>
  </g>
 </g>
 <defs>
  <clipPath id="p69a0c80c89">
   <rect x="57.6" y="41.472" width="357.12" height="266.112"/>
  </clipPath>
 </defs>
</svg>
